# xmcd CD database file generated by RipIT.
#
# Track frame offsets:
#	150
#	20817
#	43456
#	58695
#	80450
#	104966
#	131899
#	157847
#	178942
#	197978
#	227837
#
# Disc length: 3426 seconds
#
# Revision: 3
# Processed by: cddbd v1.5.1PL2 Copyright (c) Steve Scherf et al.
# Submitted via: RipIT 3.4 www.suwald.com/ripit/ripit.html at Tue Mar 7 07:50:15 CET 2006.
#
DISCID=a70d600b
DTITLE=Depeche Mode - Singles 86-98 [CD2)
DYEAR=1998
DGENRE=Synthpop
TTITLE0=I Feel You (Live In Cologne 1998)
TTITLE1=Walking In My Shoes
TTITLE2=Condemnation
TTITLE3=In Your Room
TTITLE4=Barrel Of A Gun
TTITLE5=It's No Good
TTITLE6=Home
TTITLE7=Useless
TTITLE8=Only When I Lose Myself
TTITLE9=Little
TTITLE10=Everything Counts (Live)
EXTD=
EXTT0=
EXTT1=
EXTT2=
EXTT3=
EXTT4=
EXTT5=
EXTT6=
EXTT7=
EXTT8=
EXTT9=
EXTT10=
PLAYORDER=
